<svg width="12" height="12" viewBox="0 0 12 12" fill="none" xmlns="http://www.w3.org/2000/svg">
<path d="M9.86659 1.2531H9.69682V0.391528C9.69682 0.175378 9.52144 0 9.30529 0H7.81775C7.60108 0 7.42622 0.175378 7.42622 0.391528V1.26584H3.87597V0.391528C3.87597 0.175378 3.70112 0 3.48444 0H1.9969C1.78075 0 1.60537 0.175378 1.60537 0.391528V1.26584H1.4356C0.642863 1.26584 0 1.9087 0 2.70144V10.3103C0 11.103 0.642863 11.7459 1.4356 11.7459H9.86677C10.6595 11.7459 11.3024 11.103 11.3024 10.3103V2.68878C11.3024 2.30795 11.151 1.94242 10.8818 1.67326C10.6126 1.4041 10.2476 1.25318 9.86677 1.25318L9.86659 1.2531ZM8.20925 0.783056H8.91379V2.14009H8.20925V0.783056ZM2.38827 0.783056H3.09281V2.14009H2.38827V0.783056ZM1.43545 2.04889H1.60521V2.54493C1.60521 2.76108 1.78059 2.93646 1.99674 2.93646H3.48429C3.70096 2.93646 3.87582 2.76108 3.87582 2.54493V2.03616H7.42606V2.5322V2.53169C7.42606 2.74836 7.60092 2.92321 7.81759 2.92321H9.30514C9.52129 2.92321 9.69667 2.74836 9.69667 2.53169V2.03615H9.86643C10.0393 2.03615 10.2055 2.10447 10.3278 2.22732C10.4502 2.34968 10.519 2.51536 10.519 2.6887V4.17625H0.782717V2.6887C0.782717 2.32827 1.07484 2.03615 1.43526 2.03615L1.43545 2.04889ZM9.86662 10.9628H1.43545C1.07502 10.9628 0.7829 10.6707 0.7829 10.3103V4.95938H10.5192V10.3103C10.5192 10.4831 10.4503 10.6493 10.328 10.7716C10.2056 10.894 10.0394 10.9628 9.86662 10.9628Z" fill="white"/>
<path d="M1.99677 6.46014H9.22673V7.2432H1.99677V6.46014Z" fill="white"/>
<path d="M1.99677 8.41779H9.22673V9.20084H1.99677V8.41779Z" fill="white"/>
</svg>
