<svg width="12" height="15" viewBox="0 0 12 15" fill="none" xmlns="http://www.w3.org/2000/svg">
<path d="M5.96108 4.71684C5.10959 4.71684 4.41614 5.40965 4.41614 6.26178C4.41614 7.1139 5.10895 7.80672 5.96108 7.80672C6.81321 7.80672 7.50601 7.11329 7.50601 6.26178C7.50601 5.40967 6.81321 4.71684 5.96108 4.71684Z" fill="black"/>
<path d="M5.961 0.300751C2.67368 0.300751 0 2.97459 0 6.26175C0 7.61302 0.464783 8.93687 1.30941 9.98952C2.34645 11.2827 5.61116 14.3682 5.74998 14.4993L5.96113 14.6992L6.17291 14.4993C6.31097 14.3688 9.5757 11.2827 10.6135 9.98952C11.4575 8.9375 11.9229 7.61379 11.9229 6.26175C11.9223 2.97443 9.24841 0.300751 5.96124 0.300751H5.961ZM5.961 8.42335C4.76904 8.42335 3.79941 7.45378 3.79941 6.26175C3.79941 5.06979 4.76898 4.10017 5.961 4.10017C7.15303 4.10017 8.12323 5.06973 8.12323 6.26175C8.12261 7.45372 7.15305 8.42335 5.961 8.42335Z" fill="black"/>
</svg>
