<svg width="41" height="48" viewBox="0 0 41 48" fill="none" xmlns="http://www.w3.org/2000/svg">
<path d="M20.4255 15.1112C17.6231 15.1112 15.3408 17.3913 15.3408 20.1958C15.3408 23.0003 17.621 25.2805 20.4255 25.2805C23.23 25.2805 25.5101 22.9983 25.5101 20.1958C25.5101 17.3914 23.23 15.1112 20.4255 15.1112Z" fill="white"/>
<path d="M20.4253 0.577057C9.60618 0.577057 0.806641 9.37712 0.806641 20.1958C0.806641 24.643 2.33632 29 5.11614 32.4645C8.52922 36.7205 19.2739 46.8755 19.7308 47.3071L20.4258 47.965L21.1228 47.3071C21.5771 46.8773 32.3219 36.7206 35.7374 32.4645C38.5151 29.0021 40.0469 24.6455 40.0469 20.1958C40.0449 9.3766 31.2448 0.577057 20.4261 0.577057H20.4253ZM20.4253 27.3099C16.5024 27.3099 13.3112 24.1189 13.3112 20.1958C13.3112 16.2728 16.5022 13.0816 20.4253 13.0816C24.3485 13.0816 27.5416 16.2726 27.5416 20.1958C27.5396 24.1187 24.3486 27.3099 20.4253 27.3099Z" fill="white"/>
</svg>
