<?xml version="1.0" encoding="utf-8"?>
<!-- Generator: Adobe Illustrator 24.3.0, SVG Export Plug-In . SVG Version: 6.00 Build 0)  -->
<svg version="1.1" id="Layer_1" xmlns="http://www.w3.org/2000/svg" xmlns:xlink="http://www.w3.org/1999/xlink" x="0px" y="0px"
	 viewBox="0 0 9.8 13.7" style="enable-background:new 0 0 9.8 13.7;" xml:space="preserve">
<path d="M3.5,0v3.7H0v10.1h9.8V0H3.5z M7.6,11.4H2.1c-0.2,0-0.4-0.2-0.4-0.5c0-0.3,0.2-0.5,0.4-0.5h5.6c0.2,0,0.4,0.2,0.4,0.5
	C8.1,11.2,7.9,11.4,7.6,11.4z M7.6,8.7H2.1c-0.2,0-0.4-0.2-0.4-0.5c0-0.3,0.2-0.5,0.4-0.5h5.6c0.2,0,0.4,0.2,0.4,0.5
	C8.1,8.5,7.9,8.7,7.6,8.7z M7.6,5.9H2.1c-0.2,0-0.4-0.2-0.4-0.5C1.6,5.2,1.8,5,2.1,5h5.6c0.2,0,0.4,0.2,0.4,0.5
	C8.1,5.7,7.9,5.9,7.6,5.9z"/>
<path d="M3.4,0L0,3.5v0.3h0.3l3.4-3.5V0H3.4z"/>
</svg>
