<svg width="25" height="25" viewBox="0 0 25 25" fill="none" xmlns="http://www.w3.org/2000/svg">
<path d="M10.0689 0C4.52059 0 0 4.52059 0 10.0689C0 15.6172 4.52059 20.1378 10.0689 20.1378C12.4681 20.1378 14.6721 19.2901 16.4054 17.881L23.2192 24.6948C23.6261 25.1017 24.2879 25.1017 24.6948 24.6948C25.1017 24.2879 25.1017 23.6369 24.6948 23.2301L17.881 16.4162C19.2928 14.6829 20.1378 12.4709 20.1378 10.069C20.1378 4.52066 15.6172 6.9535e-05 10.0689 6.9535e-05V0ZM10.0689 2.08322C14.4916 2.08322 18.0546 5.64622 18.0546 10.0689C18.0546 14.4916 14.4916 18.0546 10.0689 18.0546C5.64622 18.0546 2.08322 14.4916 2.08322 10.0689C2.08322 5.64622 5.64622 2.08322 10.0689 2.08322Z" fill="black"/>
</svg>
