<svg width="12" height="13" viewBox="0 0 12 13" fill="none" xmlns="http://www.w3.org/2000/svg">
<path d="M9.30068 3.48795C9.30068 1.56956 7.81573 0 6.00044 0C4.18515 0 2.7002 1.56941 2.7002 3.48795C2.7002 5.4065 4.18515 6.97591 6.00044 6.97591C7.81573 6.97591 9.30068 5.4065 9.30068 3.48795Z" fill="black"/>
<path d="M7.30531 7.70537C6.88511 7.84805 6.45029 7.92711 6.00029 7.92711C5.55028 7.92711 5.11547 7.84804 4.69527 7.70537C3.37505 7.24582 1.90522 7.6263 1.03502 8.75169C0.390376 9.59172 0 10.6696 0 11.827C0 12.4768 0.495008 13 1.10983 13H10.8902C11.505 13 12 12.4768 12 11.827C12 10.6695 11.6102 9.59164 10.965 8.75169C10.0802 7.62571 8.62552 7.24523 7.30531 7.70537Z" fill="black"/>
</svg>
