<svg width="14" height="14" viewBox="0 0 14 14" fill="none" xmlns="http://www.w3.org/2000/svg">
<path d="M6.99996 8.61307C7.89085 8.61307 8.61307 7.89085 8.61307 6.99996C8.61307 6.10906 7.89085 5.38684 6.99996 5.38684C6.10906 5.38684 5.38684 6.10906 5.38684 6.99996C5.38684 7.89085 6.10906 8.61307 6.99996 8.61307Z" stroke="black" stroke-miterlimit="10"/>
<path d="M5.81968 5.70164C5.30821 4.50164 5.07214 3.69508 5.07214 3.22295C5.07214 1.98361 5.93772 1 7.00001 1C8.06231 1 8.92788 2.00328 8.92788 3.22295C8.92788 3.67541 8.69182 4.46229 8.20001 5.64262" stroke="black" stroke-miterlimit="10"/>
<path d="M8.18034 8.29834C8.69182 9.49834 8.92788 10.3049 8.92788 10.777C8.92788 12.0164 8.06231 13 7.00001 13C5.93772 13 5.07214 11.9967 5.07214 10.777C5.07214 10.3246 5.30821 9.53768 5.80001 8.35736" stroke="black" stroke-miterlimit="10"/>
<path d="M8.29834 5.81968C9.49834 5.30821 10.3049 5.07214 10.777 5.07214C12.0164 5.07214 13 5.93772 13 7.00001C13 8.06231 11.9967 8.92788 10.777 8.92788C10.3246 8.92788 9.53768 8.69182 8.35736 8.20001" stroke="black" stroke-miterlimit="10"/>
<path d="M5.70164 8.18034C4.50164 8.69182 3.69508 8.92788 3.22295 8.92788C1.98361 8.92788 1 8.06231 1 7.00001C1 5.93772 2.00328 5.07214 3.22295 5.07214C3.67541 5.07214 4.46229 5.30821 5.64262 5.80001" stroke="black" stroke-miterlimit="10"/>
</svg>
